<svg xmlns="http://www.w3.org/2000/svg" viewBox="0 0 260 48" width="260" height="48" fill="none" role="img" aria-label="Olive and Ember">
  <!-- ember flame mark -->
  <g transform="translate(6 6)">
    <path d="M18 2c2.6 3.4 1.2 6.2-.6 8.2-1.6 1.8-2.2 3.4-1.2 5.4.8-.4 1.4-1.2 1.8-2.2 1.8 1.6 2.8 3.6 2.8 5.8 0 4.2-3.4 7.4-7.6 7.4S5.6 26.6 5.6 22.4c0-3.4 2-6 3.4-8.4 1.6-2.8 2-5.2 1-8.4 3 1.2 5 3.2 5.8 5.8C16.6 8 16.4 4.8 18 2Z" fill="#D4A853"/>
    <path d="M11.4 26.4c-2 0-3.6-1.6-3.6-3.6 0-1.8 1-3.2 1.8-4.6.9 2 2.4 2.6 2.4 4.6 0 1-.4 1.8-1 2.4 1.2-.2 2-1.2 2.2-2.4.8 1 1.2 2 1.2 3 0 .4-.06.78-.16 1.14A3.6 3.6 0 0 1 11.4 26.4Z" fill="#C4522A"/>
  </g>
  <!-- wordmark -->
  <text x="44" y="24" font-family="Georgia, 'Times New Roman', serif" font-size="19" font-weight="600" letter-spacing="0.02em" fill="#2C1810">Olive</text>
  <text x="44" y="42" font-family="Georgia, 'Times New Roman', serif" font-size="19" font-weight="600" letter-spacing="0.02em" fill="#2C1810">&amp; Ember</text>
</svg>
